HIERARCHY
ROOT Hips
{
	OFFSET	0.00	0.00	0.00
	CHANNELS 6 Xposition Yposition Zposition Zrotation Xrotation Yrotation
	JOINT Spine
	{
		OFFSET	 0.00	0.01	 0.00
		CHANNELS 3 Zrotation Xrotation Yrotation
		JOINT Spine1
		{
			OFFSET	 0.00	 2.45913012437421	 0.00
			CHANNELS 3 Zrotation Xrotation Yrotation
            JOINT Neck
            {
                OFFSET	 0.00	 2.48462964506057	 0.00
                CHANNELS 3 Zrotation Xrotation Yrotation
                JOINT Head
                {
                    OFFSET	 0.00	 0.927524780924562	 0.00
                    CHANNELS 3 Zrotation Xrotation Yrotation
                    End Site 
                    {
                        OFFSET	 0.00	 1.14999962169752	 0.00
                    }
                }
            }
			JOINT LeftShoulder
			{
				OFFSET	 0.00	 2.48462964506057	 0.00
				CHANNELS 3 Zrotation Xrotation Yrotation
				JOINT LeftUpArm
				{
					OFFSET	 0.00	 1.24881979654096	 0.00
					CHANNELS 3 Zrotation Xrotation Yrotation
					JOINT LeftForeArm
					{
						OFFSET	 0.00	2.59758046908119	 0.00
						CHANNELS 3 Zrotation Xrotation Yrotation
						JOINT LeftHand
						{
							OFFSET	 0.00	2.45542024364365	 0.00
							CHANNELS 3 Zrotation Xrotation Yrotation
							JOINT LeftHandThumb 
							{
								OFFSET	 0.00	0.00	 0.00
								CHANNELS 3 Zrotation Xrotation Yrotation
								End Site
								{
									OFFSET	 0.00	0.00	1.00000003353624
								}
							}
							JOINT L_Wrist_End 
							{
								OFFSET	 0.00	0.99999967115358	 0.00
								CHANNELS 3 Zrotation Xrotation Yrotation
								End Site 
								{
									OFFSET	 0.00	 0.00	 0.00
								}
							}
						}
					}
				}
			}
			JOINT RightShoulder
			{
				OFFSET	 0.00	 2.48462964506057	 0.00
				CHANNELS 3 Zrotation Xrotation Yrotation
				JOINT RightUpArm
				{
					OFFSET	 0.00	 1.24881979654096	 0.00
					CHANNELS 3 Zrotation Xrotation Yrotation
					JOINT RightForeArm
					{
						OFFSET	 0.00	2.59758046908119	 0.00
						CHANNELS 3 Zrotation Xrotation Yrotation
						JOINT RightHand
						{
							OFFSET	 0.00	2.45542024364365	 0.00
							CHANNELS 3 Zrotation Xrotation Yrotation
							JOINT RightHandThumb 
							{
								OFFSET	 0.00	0.00	 0.00
								CHANNELS 3 Zrotation Xrotation Yrotation
								End Site
								{
									OFFSET	 0.00	0.00	1.00000003353624
								}
							}
							JOINT R_Wrist_End 
							{
								OFFSET	 0.00	0.99999967115358	 0.00
								CHANNELS 3 Zrotation Xrotation Yrotation
								End Site 
								{
									OFFSET	 0.00	 0.00	 0.00
								}
							}
						}
					}
				}
			}
		}
	}
	JOINT LeftUpLeg
	{
		OFFSET	 1.2719394002717	 0.00	 0.00
		CHANNELS 3 Zrotation Xrotation Yrotation
		JOINT LeftLowLeg
		{
			OFFSET	 0.00	-4.3429100912261	 0.00
			CHANNELS 3 Zrotation Xrotation Yrotation
			JOINT LeftFoot
			{
				OFFSET	 0.00	-4.48767017425826	 0.00
				CHANNELS 3 Zrotation Xrotation Yrotation
				JOINT LeftToeBase
                {
                    OFFSET	 0.00	0.00	 1.51507020887566
                    CHANNELS 3 Zrotation Xrotation Yrotation
                    End Site 
                    {
                        OFFSET	 0.00	0.00	 0.75000010571191
                    }
                }
			}
		}
	}
	JOINT RightUpLeg
	{
		OFFSET	 -1.2719393604653	 0.00	 0.00
		CHANNELS 3 Zrotation Xrotation Yrotation
		JOINT RightLowLeg
		{
			OFFSET	 0.00	-4.3429100912261	 0.00
			CHANNELS 3 Zrotation Xrotation Yrotation
			JOINT RightFoot
			{
				OFFSET	 0.00	-4.48767017425826	 0.00
				CHANNELS 3 Zrotation Xrotation Yrotation
				JOINT RightToeBase
                {
                    OFFSET	 0.00	0.00	 1.51507020887566
                    CHANNELS 3 Zrotation Xrotation Yrotation
                    End Site 
                    {
                        OFFSET	 0.00	0.00	 0.749999965609858
                    }
                }   
			}
		}
	}
}
MOTION 
Frames:	20 
Frame Time: 0.02 
  -3.5584100341796874 2.2004600524902345 2.705299987792969 92.4196 43.4058 309.819 4.43853 2.37107 18.9396 -2.29034 26.6541 -47.5999 -13.0416 57.2687 -35.6303 89.5309 -62.0081 93.9258 -116.8424 6.95714 4.75761 -20.0651 54.1747 38.4207 0.0 83.8098 0.0 13.7012 3.67713 27.1039 0.0 0.0 0.0 0.0 0.0 0.0 109.126495 -9.51836 0.297935 46.0737 -2.69386 13.7135 0.0 11.5309 0.0 -73.3256 -0.957934 10.4253 0.0 0.0 0.0 0.0 0.0 0.0 17.0557 -78.9382 -324.262 0.0 113.794 0.0 -12.4904 12.58778 -38.0165 0.0 -14.170258 0.0 5.25978 -50.3136 -35.7094 0.0 130.969 0.0 33.1729 -1.8418007 12.4307 0.0 -19.13329 0.0 
  -3.5877398681640624 2.143679962158203 2.5760198974609376 91.7656 42.8062 312.145 3.6605 2.33666 19.1657 -4.09269 28.6835 -48.0497 -11.1433 59.321 -37.1378 87.5416 -60.3826 91.9719 -116.6785 7.85542 5.58482 -21.0325 53.0611 39.9094 0.0 84.6076 0.0 13.7893 3.70922 27.0309 0.0 0.0 0.0 0.0 0.0 0.0 109.023 -9.95671 0.321232 48.4556 -4.04031 9.13609 0.0 12.0703 0.0 -73.1037 -4.44752 10.4264 0.0 0.0 0.0 0.0 0.0 0.0 18.9217 -79.0512 -322.563 0.0 114.392 0.0 -11.595 13.83997 -38.7679 0.0 -14.906836 0.0 5.85787 -49.8008 -37.94 0.0 130.553 0.0 31.8917 -3.3486004 10.1403 0.0 -19.30791 0.0 
  -3.6081298828125 2.0963400268554686 2.4624400329589844 91.3848 41.9548 313.678 3.26558 2.52646 19.6952 -6.798 30.4028 -48.3735 -10.359 61.9725 -37.6355 85.7799 -59.304 90.1819 -116.6495 8.02132 6.38171 -21.8795 51.6828 41.4409 0.0 85.2785 0.0 14.6842 4.33113 25.725 0.0 0.0 0.0 0.0 0.0 0.0 108.6033 -9.58137 0.116532 50.8957 -6.92634 4.42314 0.0 14.3437 0.0 -73.3123 -8.69266 10.1192 0.0 0.0 0.0 0.0 0.0 0.0 21.617 -78.9271 -319.684 0.0 114.885 0.0 -10.386 14.999505 -39.5431 0.0 -15.063017 0.0 6.45975 -49.1667 -39.5976 0.0 130.162 0.0 30.332 -5.4750996 7.89601 0.0 -17.89227 0.0 
  -3.616990051269531 2.0666200256347658 2.360110015869141 91.1806 40.6354 314.442 2.49639 2.65302 20.3638 -8.70309 32.322 -48.1461 -9.55613 64.1412 -38.5077 84.3857 -58.7859 88.7394 -116.7789 7.92828 6.38829 -23.1432 50.8331 43.8813 0.0 85.5936 0.0 17.0946 4.93557 22.5507 0.0 0.0 0.0 0.0 0.0 0.0 107.4594 -9.11507 0.410492 53.8482 -9.542 2.21245 0.0 15.901 0.0 -75.0307 -10.6562 9.20423 0.0 0.0 0.0 0.0 0.0 0.0 24.5256 -78.353 -316.193 0.0 115.254 0.0 -9.3326 16.31329 -40.3738 0.0 -14.693033 0.0 6.75165 -48.5549 -40.7398 0.0 130.175 0.0 28.4425 -7.5312996 5.49185 0.0 -16.05481 0.0 
  -3.617850036621094 2.0362699890136717 2.2734300231933595 90.8944 39.3331 315.23 1.97359 2.68085 21.0361 -10.5364 34.0659 -47.7747 -8.35205 66.933 -40.0498 84.4359 -58.4101 88.8692 -117.042 7.31219 5.9513 -25.0605 50.1212 47.3553 0.0 85.6027 0.0 19.4616 4.90305 20.3764 0.0 0.0 0.0 0.0 0.0 0.0 105.846 -8.21781 0.157355 57.0173 -12.1065 0.747915 0.0 17.1779 0.0 -76.674 -12.3075 8.60809 0.0 0.0 0.0 0.0 0.0 0.0 25.9898 -77.6784 -314.352 0.0 115.54 0.0 -8.94458 17.87301 -41.3228 0.0 -14.288767 0.0 6.56753 -47.8315 -42.1453 0.0 130.534 0.0 25.5512 -9.7861 3.00943 0.0 -13.32906 0.0 
  -3.6171099853515627 2.033249969482422 2.191470031738281 90.6058 37.7878 315.298 1.27976 3.26796 21.9859 -11.8001 34.983 -46.9441 -7.17173 69.4757 -41.7959 84.9677 -58.5395 89.447 -117.7939 6.59218 6.00962 -26.6512 50.0873 49.5577 0.0 85.0216 0.0 18.6644 5.54866 18.7842 0.0 0.0 0.0 0.0 0.0 0.0 103.7887 -6.6755 -0.726109 60.1191 -14.6956 -0.656912 0.0 19.1946 0.0 -78.5944 -16.0432 8.18984 0.0 0.0 0.0 0.0 0.0 0.0 27.8848 -76.4599 -311.612 0.0 115.748 0.0 -8.60877 18.68632 -41.8389 0.0 -14.436024 0.0 6.3602 -47.3901 -42.815 0.0 131.105 0.0 22.4084 -11.4823 0.195474 0.0 -10.183479 0.0 
  -3.617409973144531 2.0413600158691407 2.1125199890136717 90.3285 36.5901 315.3 0.689754 3.75703 22.7803 -12.2721 35.664 -45.9362 -4.97996 71.2303 -44.6553 85.9645 -58.6543 90.3876 -118.587 5.81775 6.14824 -28.3586 50.6304 52.2022 0.0 84.4037 0.0 18.7281 5.59052 19.5846 0.0 0.0 0.0 0.0 0.0 0.0 101.4386 -4.61895 -2.0111 63.8387 -16.3499 0.565015 0.0 20.1231 0.0 -80.1308 -18.4619 7.96863 0.0 0.0 0.0 0.0 0.0 0.0 29.2429 -75.6479 -309.73 0.0 115.903 0.0 -8.62247 19.221981 -42.2005 0.0 -14.593992 0.0 6.32445 -47.2263 -43.3947 0.0 131.35 0.0 22.6502 -12.255501 -1.16499 0.0 -9.86643 0.0 
  -3.617460021972656 2.059739990234375 2.039219970703125 90.1551 35.5786 315.38 0.168566 4.17141 23.4893 -12.3648 36.2702 -44.8365 -0.744674 72.6949 -49.6088 86.9483 -58.343 91.2333 -119.029 5.66099 6.28415 -30.7927 50.8081 55.0062 0.0 83.7055 0.0 17.5261 5.31589 21.4908 0.0 0.0 0.0 0.0 0.0 0.0 99.100174 -2.39379 -2.96959 67.432 -17.6768 1.37041 0.0 20.2012 0.0 -81.1599 -21.9695 8.5429 0.0 0.0 0.0 0.0 0.0 0.0 29.7682 -75.2753 -308.774 0.0 115.945 0.0 -8.73981 19.83852 -42.4507 0.0 -14.765713 0.0 5.90626 -47.4121 -44.2985 0.0 131.629 0.0 22.8526 -12.092699 -2.65482 0.0 -10.55088 0.0 
  -3.626700134277344 2.0828199768066407 1.9655299377441406 89.9462 35.1758 315.497 -0.0128624 4.47892 24.1324 -12.2767 36.5762 -43.7585 3.81809 74.0123 -54.6743 88.113 -57.9548 91.7045 -119.389 5.79903 6.00555 -33.7904 50.3229 57.9945 0.0 82.9808 0.0 14.5394 5.60977 23.4988 0.0 0.0 0.0 0.0 0.0 0.0 97.39347 0.0663474 -3.58168 69.8722 -19.5612 -0.87639 0.0 21.3076 0.0 -82.0081 -29.5929 9.28618 0.0 0.0 0.0 0.0 0.0 0.0 31.6829 -75.4724 -306.882 0.0 116.022 0.0 -8.64776 20.55341 -42.5812 0.0 -14.631983 0.0 6.10016 -47.6365 -45.1272 0.0 131.603 0.0 22.2351 -12.5756 -4.11596 0.0 -10.84517 0.0 
  -3.63760009765625 2.0838999938964844 1.907310028076172 88.7407 35.1254 317.27 0.737957 4.51701 24.187 -11.8043 37.8563 -42.7078 10.3217 74.6073 -61.7459 88.2553 -57.133 91.3438 -119.6228 6.24646 7.37645 -34.5232 50.9927 59.5176 0.0 82.3731 0.0 13.2014 6.0722 23.9686 0.0 0.0 0.0 0.0 0.0 0.0 96.31828 2.06626 -3.98516 72.2272 -21.2361 -1.94046 0.0 22.326 0.0 -82.4092 -35.5617 10.1051 0.0 0.0 0.0 0.0 0.0 0.0 30.7918 -76.0878 -308.781 0.0 116.28 0.0 -8.48326 21.196499 -42.6284 0.0 -14.058814 0.0 5.8879 -46.9761 -47.3193 0.0 131.4 0.0 18.5814 -13.3503 -6.57415 0.0 -8.555531 0.0 
  -3.6512100219726564 2.1122999572753907 1.8426600646972657 88.328 34.9398 317.602 1.09734 5.06206 24.8283 -11.9647 38.3309 -41.5526 16.3659 74.4459 -68.5095 87.6457 -56.4639 90.6932 -119.949 6.16891 7.92202 -35.5566 51.5663 64.1029 0.0 82.2677 0.0 18.171 5.85643 25.1377 0.0 0.0 0.0 0.0 0.0 0.0 95.59963 3.45543 -4.50162 74.3445 -22.2919 -1.35707 0.0 23.0308 0.0 -83.0414 -38.8401 10.3627 0.0 0.0 0.0 0.0 0.0 0.0 32.4484 -76.4225 -307.346 0.0 116.325 0.0 -8.44229 21.7683 -42.5806 0.0 -13.29121 0.0 5.75913 -47.1829 -48.4439 0.0 131.456 0.0 15.5777 -13.6091 -8.80618 0.0 -7.22411 0.0 
  -3.670469970703125 2.1370799255371096 1.7738699340820312 88.1413 34.8741 317.848 1.02098 5.74558 25.2926 -11.8558 38.1958 -40.842 20.1566 74.3137 -72.8204 86.8792 -56.2204 89.7812 -120.0099 6.04684 7.82386 -37.9871 51.1766 67.4899 0.0 81.7653 0.0 15.7978 6.25877 25.667 0.0 0.0 0.0 0.0 0.0 0.0 95.06616 4.2569 -4.71623 75.6905 -23.2994 -1.47958 0.0 24.0121 0.0 -83.4759 -41.5792 10.3412 0.0 0.0 0.0 0.0 0.0 0.0 34.8908 -76.7989 -305.112 0.0 116.272 0.0 -8.46055 22.532139 -42.8129 0.0 -12.55472 0.0 5.49647 -47.5633 -49.7536 0.0 131.368 0.0 15.0251 -13.430901 -9.92742 0.0 -7.95639 0.0 
  -3.699179992675781 2.1596000671386717 1.7061300659179688 87.7948 35.2488 318.121 1.2437 6.48563 25.8107 -12.063 37.811 -40.2534 23.7505 74.592 -76.6895 86.5079 -56.0113 88.9345 -119.9992 6.08108 7.90605 -39.6137 50.2735 70.0356 0.0 81.4483 0.0 13.0638 6.54284 26.7534 0.0 0.0 0.0 0.0 0.0 0.0 95.1604 4.43632 -4.92445 75.8159 -24.3421 -3.8413 0.0 25.69 0.0 -84.1064 -45.4644 10.0044 0.0 0.0 0.0 0.0 0.0 0.0 38.741 -77.3048 -301.979 0.0 116.191 0.0 -8.74107 23.38913 -43.3332 0.0 -11.54846 0.0 5.74184 -47.6197 -50.8414 0.0 131.033 0.0 10.4163 -14.3818 -12.2301 0.0 -4.7801 0.0 
  -3.7213198852539064 2.1725199890136717 1.6443800354003906 87.7763 35.424 318.74 1.26285 7.09088 26.0071 -12.2566 37.5064 -40.1921 26.6136 75.0954 -79.7085 86.2984 -56.0459 88.2619 -120.2508 5.95218 8.35284 -39.4111 49.6662 73.3189 0.0 81.6242 0.0 16.8498 7.0026 29.03 0.0 0.0 0.0 0.0 0.0 0.0 95.284256 4.54978 -5.16177 75.9324 -25.2939 -5.53774 0.0 27.2814 0.0 -84.7635 -48.1302 9.46867 0.0 0.0 0.0 0.0 0.0 0.0 40.7136 -77.9889 -300.381 0.0 115.972 0.0 -8.89849 24.44219 -43.76 0.0 -10.93572 0.0 4.81458 -48.0655 -52.9031 0.0 130.907 0.0 9.95224 -13.7775 -13.1761 0.0 -5.3700104 0.0 
  -3.7447900390625 2.1803300476074217 1.5905599975585938 87.4123 35.5937 319.621 1.45643 7.53554 25.872 -12.223 37.6231 -40.2545 27.709 75.5377 -80.8855 86.2173 -56.3605 87.8873 -120.1121 6.11776 8.58613 -39.488 48.6082 74.7096 0.0 81.4588 0.0 15.8602 7.73294 30.7264 0.0 0.0 0.0 0.0 0.0 0.0 95.35051 4.74296 -5.25195 76.2855 -25.9361 -6.09128 0.0 28.5939 0.0 -85.5021 -49.0553 8.83788 0.0 0.0 0.0 0.0 0.0 0.0 42.5518 -78.6053 -298.959 0.0 115.885 0.0 -8.23804 25.2176 -43.7497 0.0 -10.768391 0.0 4.03666 -48.0191 -54.9177 0.0 130.65 0.0 8.80125 -13.3437 -14.1255 0.0 -4.9526997 0.0 
  -3.81864990234375 2.196179962158203 1.527899932861328 85.2179 37.6277 319.982 3.84545 8.08744 26.5684 -13.7486 37.9626 -38.9916 32.0527 75.8016 -85.3845 87.2631 -55.7576 89.0787 -119.2666 6.52926 8.54803 -39.2469 47.5234 76.4586 0.0 81.044 0.0 15.9227 8.37407 32.182 0.0 0.0 0.0 0.0 0.0 0.0 96.6356 4.66218 -5.0434 75.9716 -26.4804 -7.43138 0.0 29.9699 0.0 -86.345 -50.605 8.04847 0.0 0.0 0.0 0.0 0.0 0.0 55.8343 -78.2107 -288.3 0.0 116.202 0.0 -7.40548 25.8039 -43.9399 0.0 -10.77884 0.0 9.3271 -47.444 -54.2674 0.0 129.03 0.0 -4.05845 -16.9919 -23.3762 0.0 5.9393005 0.0 
  -3.8418499755859377 2.173970031738281 1.4751199340820313 84.6809 37.415 321.187 3.36785 8.44864 26.1957 -12.9352 38.1292 -39.2307 33.5854 76.17 -87.1716 87.5266 -56.1984 89.425 -119.2099 6.62492 9.08875 -38.8423 47.0147 77.3773 0.0 80.4291 0.0 14.6683 9.02716 33.107 0.0 0.0 0.0 0.0 0.0 0.0 96.65129 4.77732 -5.06389 76.0661 -27.0165 -8.33256 0.0 31.3031 0.0 -87.3478 -51.5007 7.1583 0.0 0.0 0.0 0.0 0.0 0.0 56.493 -78.4296 -288.081 0.0 116.205 0.0 -6.844 26.6187 -44.2616 0.0 -11.03167 0.0 8.84112 -46.9202 -56.1167 0.0 128.55 0.0 -5.15449 -16.5909 -24.4053 0.0 6.4050007 0.0 
  -3.8569000244140623 2.164440002441406 1.443800048828125 83.9305 37.3133 322.408 3.38388 8.65901 25.6812 -12.0856 38.4011 -39.3707 33.8388 76.8881 -87.5253 87.8247 -57.1715 89.1388 -118.4261 6.2752 9.40877 -40.8543 46.625 78.2418 0.0 78.3932 0.0 10.2448 10.4526 35.5936 0.0 0.0 0.0 0.0 0.0 0.0 96.80518 4.98331 -5.19628 76.1019 -27.4582 -8.2374 0.0 32.6496 0.0 -88.8523 -51.3277 5.48778 0.0 0.0 0.0 0.0 0.0 0.0 56.2795 -78.7771 -288.854 0.0 116.267 0.0 -6.53941 27.136 -44.3534 0.0 -11.07149 0.0 8.41507 -46.2758 -57.7241 0.0 128.149 0.0 -4.39212 -16.4934 -24.2399 0.0 5.8008995 0.0 
  -3.8656100463867187 2.176699981689453 1.404250030517578 83.8756 36.716 322.379 3.01087 9.2944 25.7244 -12.0142 38.5511 -39.4223 31.6297 77.1117 -85.3117 86.6021 -57.9568 87.7486 -117.4672 6.43286 8.66013 -43.074 44.8735 79.5993 0.0 77.0797 0.0 8.09194 10.8748 38.8746 0.0 0.0 0.0 0.0 0.0 0.0 96.55112 5.07896 -5.43661 76.5638 -27.7878 -7.76883 0.0 34.1322 0.0 -89.5902 -50.5826 4.9004 0.0 0.0 0.0 0.0 0.0 0.0 56.0867 -78.5233 -288.756 0.0 116.223 0.0 -6.41095 27.4806 -44.1701 0.0 -10.95341 0.0 8.09101 -46.0813 -58.2269 0.0 128.073 0.0 -4.17685 -16.4306 -24.4898 0.0 5.5949 0.0 
  -3.8731201171875 2.1692599487304687 1.3836199951171875 83.7078 36.1964 322.713 2.90789 9.50123 25.7534 -12.2607 39.3033 -39.3088 32.875 77.3813 -86.7221 85.869 -58.2244 87.2944 -117.5384 6.51245 9.03235 -42.3564 44.4748 80.2203 0.0 76.388 0.0 8.06822 10.845 40.3819 0.0 0.0 0.0 0.0 0.0 0.0 96.9415 4.87543 -5.56387 76.4603 -28.2215 -8.13348 0.0 35.5347 0.0 -90.4672 -49.9656 3.86453 0.0 0.0 0.0 0.0 0.0 0.0 54.8031 -78.328 -289.899 0.0 116.235 0.0 -6.05219 27.6327 -44.1816 0.0 -11.01845 0.0 7.87861 -45.5925 -58.8238 0.0 127.913 0.0 -2.69736 -16.6187 -24.2406 0.0 3.9566994 0.0 
